<?xml version="1.0"?>
<svg xmlns="http://www.w3.org/2000/svg" xmlns:xlink="http://www.w3.org/1999/xlink" xmlns:svgjs="http://svgjs.com/svgjs" version="1.1" width="512" height="512" x="0" y="0" viewBox="0 0 64 64" style="enable-background:new 0 0 512 512" xml:space="preserve" class=""><g><path xmlns="http://www.w3.org/2000/svg" d="m44 38h-24v-23a12 12 0 0 1 12-12 12 12 0 0 1 12 12z" fill="#nannannan" data-original="#3e3d42" style="" class=""/><path xmlns="http://www.w3.org/2000/svg" d="m46 47v-7.54a5.991 5.991 0 0 0 -4.28-5.74l-2.16-.65a5.007 5.007 0 0 1 -3.56-4.79v-5.28h-8v5.28a5.007 5.007 0 0 1 -3.56 4.79l-2.16.65a5.991 5.991 0 0 0 -4.28 5.74v20.54h28z" fill="#f1212e" data-original="#f24e58" style="" class=""/><path xmlns="http://www.w3.org/2000/svg" d="m38.97 32.85c-.27 2.33-3.28 4.15-6.97 4.15s-6.7-1.82-6.97-4.15a5 5 0 0 0 2.97-4.57v-5.28h8v5.28a5 5 0 0 0 2.97 4.57z" fill="#a86a4f" data-original="#ffcbbe" style="" class=""/><path xmlns="http://www.w3.org/2000/svg" d="m40 13a2 2 0 0 0 -2-2h-1.29a4.724 4.724 0 0 1 -3-1.08 4.714 4.714 0 0 1 -4.42 3.08h-3.29a2 2 0 0 0 -2 2v5.728a8.18 8.18 0 0 0 7.471 8.255 8 8 0 0 0 8.529-7.983z" fill="#c87b59" data-original="#ffddce" style="" class=""/><path xmlns="http://www.w3.org/2000/svg" d="m52 58h-40l-.95-19.952a1 1 0 0 1 1-1.048h39.9a1 1 0 0 1 1 1.048z" fill="#016ca9" data-original="#016ca9" style="" class=""/><path xmlns="http://www.w3.org/2000/svg" d="m52.719 61h-41.438a1 1 0 0 1 -.97-1.243l.5-2a1 1 0 0 1 .97-.757h40.438a1 1 0 0 1 .97.757l.5 2a1 1 0 0 1 -.97 1.243z" fill="#016ca9" data-original="#016ca9" style="" class=""/><circle xmlns="http://www.w3.org/2000/svg" cx="32" cy="46" fill="#ffffff" r="3" data-original="#ffffff" style="" class=""/><path xmlns="http://www.w3.org/2000/svg" d="m29 19a1 1 0 0 0 1-1v-1a1 1 0 0 0 -2 0v1a1 1 0 0 0 1 1z" fill="#000000" data-original="#000000" style="" class=""/><path xmlns="http://www.w3.org/2000/svg" d="m35 16a1 1 0 0 0 -1 1v1a1 1 0 0 0 2 0v-1a1 1 0 0 0 -1-1z" fill="#000000" data-original="#000000" style="" class=""/><path xmlns="http://www.w3.org/2000/svg" d="m32 24c-1.221 0-2-.592-2-1h-2c0 1.682 1.757 3 4 3s4-1.318 4-3h-2c0 .408-.779 1-2 1z" fill="#000000" data-original="#000000" style="" class=""/><path xmlns="http://www.w3.org/2000/svg" d="m54.66 59.51-.5-2a2.018 2.018 0 0 0 -1.07-1.31l.86-18.1a2 2 0 0 0 -2-2.1h-5.87a7.192 7.192 0 0 0 -1.08-1.42v-19.58a13 13 0 0 0 -26 0v19.58a7.192 7.192 0 0 0 -1.08 1.42h-5.87a2 2 0 0 0 -2 2.1l.86 18.1a2.018 2.018 0 0 0 -1.07 1.31l-.5 2.01a1.982 1.982 0 0 0 .36 1.71 2 2 0 0 0 1.58.77h41.44a2 2 0 0 0 1.94-2.49zm-33.66-44.51a11 11 0 1 1 22 0v18.15a8.48 8.48 0 0 0 -.99-.39l-2.16-.65a3.967 3.967 0 0 1 -2.83-3.64 10.718 10.718 0 0 0 1.14-.9 9.073 9.073 0 0 0 2.84-6.57v-8a3.009 3.009 0 0 0 -3-3h-1.29a3.782 3.782 0 0 1 -2.37-.85.992.992 0 0 0 -.89-.2 1.05 1.05 0 0 0 -.68.62 3.74 3.74 0 0 1 -3.48 2.43h-3.29a3.009 3.009 0 0 0 -3 3v5.73a9.341 9.341 0 0 0 3.99 7.69 3.969 3.969 0 0 1 -2.84 3.69l-2.16.65a7.018 7.018 0 0 0 -.99.39zm22.57 21h-5.38a5.208 5.208 0 0 0 1.45-1.86l1.79.54a4.955 4.955 0 0 1 2.14 1.32zm-14.69-6.57a8.783 8.783 0 0 0 2.53.55c.2.01.4.02.6.02a9.016 9.016 0 0 0 3.11-.56 5.913 5.913 0 0 0 2.69 3.9c-.67 1.51-3.08 2.66-5.81 2.66s-5.14-1.15-5.81-2.66a5.933 5.933 0 0 0 2.69-3.91zm-3.88-8.7v-5.73a1 1 0 0 1 1-1h3.29a5.751 5.751 0 0 0 4.81-2.63 5.711 5.711 0 0 0 2.61.63h1.29a1 1 0 0 1 1 1v8a6.984 6.984 0 0 1 -7.46 6.98 7.149 7.149 0 0 1 -6.54-7.25zm-2.43 13.95 1.79-.54a5.208 5.208 0 0 0 1.45 1.86h-5.38a4.955 4.955 0 0 1 2.14-1.32zm29.38 3.32-.85 18h-38.2l-.85-18zm-40.67 22 .5-2h40.44l.5 2z" fill="#000000" data-original="#000000" style="" class=""/><path xmlns="http://www.w3.org/2000/svg" d="m32 50a4 4 0 1 0 -4-4 4 4 0 0 0 4 4zm0-6a2 2 0 1 1 -2 2 2 2 0 0 1 2-2z" fill="#000000" data-original="#000000" style="" class=""/></g></svg>
